# xmcd
#
# Track frame offsets:
#	150
#	17265
#	33168
#	51202
#	72609
#	87444
#	106382
#	126600
#	144084
#	162098
#	179273
#	194060
#	210727
#	230165
#	248655
#
# Disc length: 3563 seconds
#
# Revision: 1
# Processed by: cddbd v1.5.2PL0 Copyright (c) Steve Scherf et al.
# Submitted via: audiograbber 1.83.01
#
DISCID=d50de90f
DTITLE=Rascal Flatts - CB8589
DYEAR=1900
DGENRE=Country
TTITLE0=Rascal Flatts - These Days
TTITLE1=Rascal Flatts - Feels Like Today
TTITLE2=Rascal Flatts - Bless The Broken Road
TTITLE3=Rascal Flatts - Mayberry
TTITLE4=Rascal Flatts - Love You Out Loud
TTITLE5=Rascal Flatts - I Melt
TTITLE6=Rascal Flatts - Fast Cars And Freedom
TTITLE7=Rascal Flatts - Prayin' For Daylight
TTITLE8=Rascal Flatts - I'm Movin' On
TTITLE9=Rascal Flatts - Here's To You
TTITLE10=Rascal Flatts - This Everyday Love
TTITLE11=Rascal Flatts - While You Loved Me
TTITLE12=Rascal Flatts - Long Slow Beautiful Dance
TTITLE13=Rascal Flatts - My Worst Fear
TTITLE14=Rascal Flatts - One Good Love
EXTD=
EXTT0=
EXTT1=
EXTT2=
EXTT3=
EXTT4=
EXTT5=
EXTT6=
EXTT7=
EXTT8=
EXTT9=
EXTT10=
EXTT11=
EXTT12=
EXTT13=
EXTT14=
PLAYORDER=
